<svg xmlns="http://www.w3.org/2000/svg" width="690" height="400" viewBox="0 0 690 400" preserveAspectRatio="xMidYMid meet" style="width: 100%; height: 100%;"><defs><clipPath id="animationMask_94Hd3dRvPs"><rect width="690" height="400" x="0" y="0"></rect></clipPath></defs><g clip-path="url(#animationMask_94Hd3dRvPs)"><g style="user-select: none; display: block;" transform="matrix(2.5,0,0,2.5,28.75,81.25)" opacity="1"><g opacity="1" transform="matrix(1,0,0,1,40.85,108.363)"><path style="display: block;" fill="rgb(255,255,255)" fill-opacity="1" d="M0 0 M7.251,0.238 C5.479,0.238 4.046,1.673 4.046,3.443 C4.046,5.211 5.479,6.645 7.251,6.645 C9.022,6.645 10.456,5.211 10.456,3.443 C10.456,1.673 9.022,0.238 7.251,0.238zM0 0 M7.251,-6.645 C5.479,-6.645 4.046,-5.207 4.046,-3.439 C4.046,-1.669 5.479,-0.232 7.251,-0.232 C9.022,-0.232 10.456,-1.669 10.456,-3.439 C10.456,-5.207 9.022,-6.645 7.251,-6.645zM0 0 M-0.001,0.238 C-1.7679999999999998,0.238 -3.204,1.673 -3.204,3.443 C-3.204,5.211 -1.7679999999999998,6.645 -0.001,6.645 C1.77,6.645 3.206,5.211 3.206,3.443 C3.206,1.673 1.77,0.238 -0.001,0.238zM0 0 M-0.001,-6.645 C-1.7679999999999998,-6.645 -3.204,-5.207 -3.204,-3.439 C-3.204,-1.669 -1.7679999999999998,-0.232 -0.001,-0.232 C1.77,-0.232 3.206,-1.669 3.206,-3.439 C3.206,-5.207 1.77,-6.645 -0.001,-6.645zM0 0 M-7.251,0.238 C-9.019,0.238 -10.456,1.673 -10.456,3.443 C-10.456,5.211 -9.019,6.645 -7.251,6.645 C-5.478000000000001,6.645 -4.043,5.211 -4.043,3.443 C-4.043,1.673 -5.478000000000001,0.238 -7.251,0.238zM0 0 M-7.251,-6.645 C-9.019,-6.645 -10.456,-5.207 -10.456,-3.439 C-10.456,-1.669 -9.019,-0.232 -7.251,-0.232 C-5.478000000000001,-0.232 -4.043,-1.669 -4.043,-3.439 C-4.043,-5.207 -5.478000000000001,-6.645 -7.251,-6.645z"></path></g></g><g style="user-select: none; display: block;" transform="matrix(2.5,0,0,2.5,28.75,81.25)" opacity="0.7000000000000001"><g opacity="1" transform="matrix(1,0,0,1,139.16,110.016)"><path style="display: block;" fill="rgb(255,255,255)" fill-opacity="1" d="M0 0 M79.933,-3.276 C81.18900000000001,-3.276 81.807,-2.34 81.786,-1.124 C81.786,-0.8870000000000001 81.627,-0.727 81.369,-0.705 C81.009,-0.6869999999999999 79.217,-0.6649999999999999 77.783,-0.705 C77.944,-2.379 78.919,-3.276 79.913,-3.276 C79.913,-3.276 79.933,-3.276 79.933,-3.276zM0 0 M82.957,3.034 C82.6,3.2319999999999998 81.62700000000001,3.532 80.73,3.532 C78.979,3.532 77.745,2.375 77.726,0.347 C79.158,0.40599999999999997 81.14800000000001,0.365 81.686,0.305 C82.361,0.187 83.315,-0.05099999999999999 83.375,-0.388 C83.413,-0.549 83.435,-0.8069999999999999 83.435,-1.006 C83.395,-2.6189999999999998 82.42099999999999,-4.308 80.154,-4.308 C77.527,-4.308 76.017,-2.081 76.017,0.427 C76.017,3.212 77.527,4.861 80.292,4.861 C81.089,4.861 81.92399999999999,4.604 82.243,4.426 C82.58,4.246 82.997,3.689 82.997,3.071 C82.997,3.071 82.957,3.034 82.957,3.034zM0 0 M70.128,-3.493 C70.486,-3.2729999999999997 70.586,-2.8560000000000003 70.586,-2.24 C70.586,-2.24 70.586,1.082 70.586,1.082 C70.586,2.8529999999999998 70.56500000000001,4.026 70.525,4.744 C70.94200000000001,4.744 71.42,4.721 71.897,4.663 C72.19300000000001,4.622 72.255,4.484999999999999 72.255,4.185 C72.255,4.185 72.255,-0.289 72.255,-0.289 C72.255,-0.728 72.333,-1.0070000000000001 72.473,-1.365 C72.89,-2.34 73.547,-2.738 73.983,-2.738 C74.242,-2.738 74.48100000000001,-2.698 74.781,-2.578 C75,-2.5989999999999998 75.297,-2.9170000000000003 75.357,-3.216 C75.496,-3.4530000000000003 75.517,-3.812 75.438,-3.988 C75.297,-4.129 74.938,-4.308 74.54,-4.308 C73.62700000000001,-4.308 72.751,-3.632 72.135,-2.321 C72.135,-3.592 71.77699999999999,-4.308 71.201,-4.308 C70.84299999999999,-4.308 70.266,-3.87 70.128,-3.572 C70.128,-3.572 70.128,-3.493 70.128,-3.493zM0 0 M60.3,1.581 C60.3,3.532 61.214,4.861 63.224,4.861 C63.681999999999995,4.861 64.1,4.763 64.496,4.604 C64.914,4.4030000000000005 65.572,4.067 66.147,3.452 C66.248,4.306 66.70500000000001,4.861 67.537,4.861 C67.95700000000001,4.861 68.414,4.306 68.435,3.93 C68.435,3.93 68.435,3.851 68.435,3.851 C67.876,3.75 67.639,3.552 67.639,2.575 C67.639,2.575 67.639,-0.627 67.639,-0.627 C67.639,-2.357 67.698,-3.771 67.698,-4.207 C67.261,-4.207 66.82300000000001,-4.148000000000001 66.289,-4.089 C66.029,-3.9880000000000004 65.968,-3.891 65.968,-3.413 C65.968,-3.413 65.968,2.479 65.968,2.479 C65.65100000000001,2.895 64.855,3.491 63.92,3.491 C63.044000000000004,3.491 61.97,3.212 61.97,1.105 C61.97,-0.18900000000000006 61.97,-1.6600000000000001 61.948,-2.975 C61.948,-4.107 61.888999999999996,-4.207 61.668,-4.207 C61.333999999999996,-4.207 60.558,-4.107 60.221,-4.009 C60.26,-3.5700000000000003 60.3,-2.9749999999999996 60.3,-1.761 C60.3,-1.761 60.3,1.581 60.3,1.581zM0 0 M58.707,3.175 C58.367,3.412 57.791000000000004,3.59 57.215,3.59 C56.538000000000004,3.59 55.879999999999995,3.293 55.781,2.098 C55.699999999999996,1.2429999999999999 55.682,-0.9059999999999997 55.781,-2.937 C57.214999999999996,-2.937 57.293,-2.937 57.97,-2.997 C58.327,-3.018 58.765,-3.0950000000000006 58.966,-4.089 C58.966,-4.089 55.802,-4.089 55.802,-4.089 C55.802,-4.506 55.841,-5.004 55.88,-5.64 C55.404,-5.561999999999999 55.126999999999995,-5.359999999999999 54.867,-5.143 C54.568999999999996,-4.8839999999999995 53.338,-3.751 53.137,-3.334 C53.137,-3.1350000000000002 53.418,-2.917 54.094,-2.917 C54.094,-2.917 54.094,2.238 54.094,2.238 C54.094,3.75 54.788,4.861 56.558,4.861 C57.255,4.861 58.028,4.663 58.428,4.325 C58.785999999999994,4.049 58.846,3.611 58.744,3.212 C58.744,3.212 58.707,3.175 58.707,3.175zM0 0 M46.412,2.356 C46.412,1.2429999999999999 47.944,0.6859999999999999 49.576,0.427 C49.576,0.427 49.576,1.979 49.576,1.979 C49.576,2.317 49.518,2.497 49.439,2.636 C49.14,3.053 48.563,3.57 47.725,3.57 C47.009,3.57 46.412,3.1129999999999995 46.412,2.377 C46.412,2.377 46.412,2.356 46.412,2.356zM0 0 M52.241,3.59 C52.121,3.631 51.963,3.631 51.863,3.631 C51.425,3.65 51.206,3.3920000000000003 51.188,2.995 C51.166000000000004,1.7810000000000001 51.227,-0.131 51.227,-0.988 C51.227,-2.878 50.272,-4.308 48.265,-4.308 C46.928,-4.308 45.637,-3.551 45.002,-2.976 C45.041000000000004,-2.479 45.300000000000004,-2.02 45.835,-2.24 C46.392,-2.619 47.129,-2.976 47.866,-2.976 C49.059,-2.976 49.598,-2.081 49.598,-1.146 C49.598,-1.146 49.598,-0.55 49.598,-0.55 C49.338,-0.51 48.961,-0.429 48.602,-0.349 C47.525999999999996,-0.08999999999999997 44.742,0.4870000000000001 44.742,2.615 C44.742,3.829 45.677,4.861 47.049,4.861 C48.104,4.861 49.04,4.228 49.598,3.611 C49.716,4.267 50.153,4.861 50.987,4.861 C51.803000000000004,4.861 52.28,4.444 52.259,3.631 C52.259,3.631 52.241,3.59 52.241,3.59zM0 0 M41.182,4.465 C41.182,4.644 41.26,4.744 41.479,4.744 C41.998,4.744 42.531000000000006,4.644 42.95,4.583 C42.911,4.086 42.872,3.25 42.872,2.097 C42.872,2.097 42.872,-0.689 42.872,-0.689 C42.872,-2.5989999999999998 42.254,-4.308 39.966,-4.308 C38.873000000000005,-4.308 37.798,-3.611 37.022,-2.838 C36.961999999999996,-3.3930000000000002 36.783,-4.308 36.168,-4.308 C35.809,-4.308 35.251999999999995,-3.931 35.095,-3.611 C35.095,-3.611 35.095,-3.532 35.095,-3.532 C35.330999999999996,-3.353 35.432,-3.0180000000000002 35.432,-2.301 C35.432,-2.301 35.432,1.082 35.432,1.082 C35.432,2.8529999999999998 35.413,4.026 35.373,4.744 C35.809,4.721 36.247,4.744000000000001 36.684,4.663 C37.022,4.622 37.101,4.564 37.101,4.166 C37.101,4.166 37.101,-1.782 37.101,-1.782 C37.559,-2.321 38.335,-2.976 39.35,-2.976 C40.505,-2.976 41.201,-2.221 41.201,-0.67 C41.201,-0.67 41.182,4.465 41.182,4.465zM0 0 M22.362,8.344 C22.541999999999998,8.581 23.060000000000002,8.84 23.536,8.84 C23.895000000000003,8.84 25.743,6.057 27.055,3.192 C28.189,0.726 28.946,-1.66 29.442,-3.413 C29.54,-3.8289999999999997 29.5,-4.0089999999999995 29.205,-4.129 C28.904,-4.247999999999999 28.487000000000002,-4.308 28.17,-4.308 C27.812,-2.6769999999999996 26.698,0.6859999999999999 25.902,2.476 C25.404,1.063 24.073999999999998,-2.735 23.575,-3.949 C23.476,-4.168 23.396,-4.308 23.138,-4.308 C22.8,-4.308 22.122,-4.068 21.746,-3.851 C22.642,-1.961 24.291,2.516 24.589,3.291 C24.729,3.6479999999999997 24.928,4.047 25.026,4.186 C24.173,5.857 23.017999999999997,7.4879999999999995 22.362,8.283 C22.362,8.283 22.362,8.344 22.362,8.344zM0 0 M14.422,-2.419 C14.921000000000001,-2.717 15.755999999999998,-2.955 16.252,-2.955 C17.904,-2.955 19.022,-1.803 19.022,0.128 C19.022,2.557 17.429,3.75 15.677,3.75 C15.298,3.75 14.781,3.691 14.422,3.552 C14.422,3.552 14.422,-2.419 14.422,-2.419zM0 0 M14.442,-7.554 C14.442,-8.763 14.363000000000001,-8.862 14.143,-8.862 C13.865,-8.862 13.093,-8.724 12.673,-8.587 C12.715,-8.189 12.753,-7.596 12.753,-6.387 C12.753,-6.387 12.753,3.79 12.753,3.79 C12.753,4.127 12.853,4.2459999999999996 13.093,4.385 C13.547,4.624 14.502,4.861 15.519,4.861 C18.424,4.861 20.809,3.014 20.809,-0.112 C20.809,-2.998 18.921,-4.308 17.091,-4.308 C16.215,-4.308 15.159,-3.851 14.422,-3.413 C14.422,-3.413 14.442,-7.554 14.442,-7.554zM0 0 M4.061,2.854 C3.583,3.254 2.807,3.512 2.171,3.512 C0.5989999999999998,3.512 -0.637,2.317 -0.637,0.326 C-0.637,-2.16 1.015,-3.195 2.509,-3.195 C3.205,-3.195 3.7809999999999997,-3.057 4.061,-2.878 C4.061,-2.878 4.061,2.854 4.061,2.854zM0 0 M4.061,-4.047 C3.8209999999999997,-4.109 3.324,-4.308 2.528,-4.308 C-0.2999999999999998,-4.308 -2.427,-2.3209999999999997 -2.427,0.546 C-2.427,3.3529999999999998 -0.6779999999999999,4.861 1.432,4.861 C2.269,4.861 3.442,4.365 4.24,3.731 C4.359,4.325 4.756,4.861 5.67,4.861 C6.086,4.861 6.505,4.346 6.584,3.908 C6.584,3.908 6.584,3.851 6.584,3.851 C5.987,3.75 5.73,3.532 5.73,2.597 C5.73,2.597 5.73,-7.554 5.73,-7.554 C5.73,-8.763 5.649,-8.862 5.429,-8.862 C5.133,-8.862 4.337,-8.724 3.981,-8.587 C4.02,-8.189 4.061,-7.7139999999999995 4.061,-6.664 C4.061,-6.664 4.061,-4.047 4.061,-4.047zM0 0 M-7.24,-3.276 C-5.988,-3.276 -5.367999999999999,-2.34 -5.39,-1.124 C-5.39,-0.8870000000000001 -5.548,-0.727 -5.806,-0.705 C-6.167,-0.6869999999999999 -7.9559999999999995,-0.6649999999999999 -9.391,-0.705 C-9.231,-2.379 -8.257,-3.276 -7.26,-3.276 C-7.26,-3.276 -7.24,-3.276 -7.24,-3.276zM0 0 M-4.22,3.034 C-4.574,3.2319999999999998 -5.548,3.532 -6.445,3.532 C-8.195,3.532 -9.428999999999998,2.375 -9.45,0.347 C-8.017,0.40599999999999997 -6.026,0.365 -5.487,0.305 C-4.814,0.187 -3.8600000000000003,-0.05099999999999999 -3.801,-0.388 C-3.761,-0.549 -3.74,-0.8069999999999999 -3.74,-1.006 C-3.781,-2.6189999999999998 -4.754,-4.308 -7.02,-4.308 C-9.649999999999999,-4.308 -11.159,-2.081 -11.159,0.427 C-11.159,3.212 -9.65,4.861 -6.883,4.861 C-6.087,4.861 -5.25,4.604 -4.934,4.426 C-4.594,4.246 -4.177,3.689 -4.177,3.071 C-4.177,3.071 -4.22,3.034 -4.22,3.034zM0 0 M-17.048,-3.493 C-16.689,-3.2729999999999997 -16.589,-2.8560000000000003 -16.589,-2.24 C-16.589,-2.24 -16.589,1.082 -16.589,1.082 C-16.589,2.8529999999999998 -16.608999999999998,4.026 -16.648,4.744 C-16.232,4.744 -15.754999999999999,4.721 -15.277,4.663 C-14.979999999999999,4.622 -14.922,4.484999999999999 -14.922,4.185 C-14.922,4.185 -14.922,-0.289 -14.922,-0.289 C-14.922,-0.728 -14.842,-1.0070000000000001 -14.702,-1.365 C-14.283,-2.34 -13.628,-2.738 -13.189,-2.738 C-12.931000000000001,-2.738 -12.693,-2.698 -12.394,-2.578 C-12.176,-2.5989999999999998 -11.879,-2.9170000000000003 -11.817,-3.216 C-11.678,-3.4530000000000003 -11.658999999999999,-3.812 -11.738,-3.988 C-11.879,-4.129 -12.235,-4.308 -12.633,-4.308 C-13.549,-4.308 -14.424,-3.632 -15.04,-2.321 C-15.04,-3.592 -15.396,-4.308 -15.974,-4.308 C-16.332,-4.308 -16.907999999999998,-3.87 -17.048,-3.572 C-17.048,-3.572 -17.048,-3.493 -17.048,-3.493zM0 0 M-21.942,-3.276 C-20.686,-3.276 -20.07,-2.34 -20.092,-1.124 C-20.092,-0.8870000000000001 -20.249,-0.727 -20.509,-0.705 C-20.868000000000002,-0.6869999999999999 -22.659,-0.6649999999999999 -24.093,-0.705 C-23.933,-2.379 -22.958000000000002,-3.276 -21.963,-3.276 C-21.963,-3.276 -21.942,-3.276 -21.942,-3.276zM0 0 M-18.92,3.034 C-19.275000000000002,3.2319999999999998 -20.249000000000002,3.532 -21.146,3.532 C-22.897000000000002,3.532 -24.133,2.375 -24.151,0.347 C-22.719,0.40599999999999997 -20.728,0.365 -20.19,0.305 C-19.516000000000002,0.187 -18.561,-0.05099999999999999 -18.501,-0.388 C-18.461000000000002,-0.549 -18.442,-0.8069999999999999 -18.442,-1.006 C-18.482,-2.6189999999999998 -19.455,-4.308 -21.723,-4.308 C-24.352,-4.308 -25.86,-2.081 -25.86,0.427 C-25.86,3.212 -24.352,4.861 -21.585,4.861 C-20.788,4.861 -19.951,4.604 -19.635,4.426 C-19.297,4.246 -18.878,3.689 -18.878,3.071 C-18.878,3.071 -18.92,3.034 -18.92,3.034zM0 0 M-38.015,-4.308 C-38.354,-4.308 -39.15,-4.068 -39.467,-3.851 C-39.25,-3.332 -38.891999999999996,-2.417 -38.315,-0.787 C-37.577999999999996,1.3820000000000001 -36.862,3.6479999999999997 -36.465,4.861 C-36.125,4.842 -35.747,4.763 -35.431,4.684 C-35.190999999999995,4.604 -35.091,4.442 -34.975,4.126 C-34.596000000000004,2.9910000000000005 -33.422000000000004,-0.2879999999999998 -33.042,-1.503 C-32.307,0.9430000000000003 -31.85,2.276 -31.114,4.861 C-30.776,4.842 -30.398,4.781 -30.1,4.702 C-29.802000000000003,4.604 -29.681,4.442 -29.543,4.047 C-28.529,1.3629999999999995 -27.872,-0.5100000000000002 -26.978,-2.955 C-26.719,-3.65 -26.719,-3.909 -26.936,-4.068 C-27.255,-4.207 -27.672,-4.308 -28.052,-4.308 C-28.349999999999998,-3.291 -28.944,-1.443 -30.316,2.555 C-31.095,-0.05099999999999971 -31.691000000000003,-1.9409999999999998 -32.09,-3.291 C-32.249,-3.87 -32.327999999999996,-4.107 -32.565,-4.107 C-32.885,-4.107 -33.542,-3.909 -33.781,-3.79 C-33.739,-3.6710000000000003 -33.678999999999995,-3.452 -33.66,-3.291 C-34.296,-1.305 -34.754000000000005,-0.010000000000000231 -35.63,2.635 C-36.385000000000005,-0.03000000000000025 -37.021,-2.0989999999999998 -37.619,-3.949 C-37.698,-4.188 -37.816,-4.308 -37.996,-4.308 C-37.996,-4.308 -38.015,-4.308 -38.015,-4.308zM0 0 M-44.801,-3.216 C-42.99,-3.216 -42.193,-1.504 -42.193,0.326 C-42.193,2.773 -43.428000000000004,3.769 -44.621,3.769 C-46.075,3.769 -47.309,2.5749999999999997 -47.309,0.147 C-47.309,-2.02 -46.154,-3.216 -44.822,-3.216 C-44.822,-3.216 -44.801,-3.216 -44.801,-3.216zM0 0 M-44.662,-4.308 C-47.29,-4.308 -49.097,-2.26 -49.097,0.366 C-49.097,2.7150000000000003 -47.68600000000001,4.861 -44.779,4.861 C-42.096000000000004,4.861 -40.406,2.834 -40.406,0.188 C-40.406,-2.34 -41.854,-4.308 -44.643,-4.308 C-44.643,-4.308 -44.662,-4.308 -44.662,-4.308zM0 0 M-57.177,-1.962 C-56.778,-2.3209999999999997 -55.844,-2.917 -54.888,-2.917 C-53.494,-2.917 -52.46,-1.722 -52.46,0.108 C-52.46,2.873 -54.271,3.71 -55.485,3.71 C-56.121,3.71 -56.778,3.51 -57.177,3.272 C-57.177,3.272 -57.177,-1.962 -57.177,-1.962zM0 0 M-57.177,4.365 C-56.76,4.644 -56.062,4.861 -55.363,4.861 C-52.775999999999996,4.861 -50.672,2.8539999999999996 -50.672,-0.091 C-50.672,-2.955 -52.441,-4.308 -54.191,-4.308 C-55.105000000000004,-4.308 -56.080999999999996,-3.891 -57.275,-2.997 C-57.314,-3.771 -57.612,-4.308 -58.07,-4.308 C-58.507,-4.308 -58.984,-3.931 -59.183,-3.632 C-59.183,-3.632 -59.183,-3.532 -59.183,-3.532 C-58.984,-3.4130000000000003 -58.845,-3.057 -58.845,-2.419 C-58.845,-2.419 -58.845,5.38 -58.845,5.38 C-58.845,7.170999999999999 -58.865,8.305 -58.905,8.862 C-58.428000000000004,8.862 -58.031,8.84 -57.554,8.782 C-57.236000000000004,8.683 -57.177,8.603 -57.177,8.283 C-57.177,8.283 -57.177,4.365 -57.177,4.365zM0 0 M-72.873,-1.782 C-72.375,-2.321 -71.579,-2.955 -70.684,-2.955 C-69.54899999999999,-2.955 -68.932,-2.202 -68.932,-0.647 C-68.932,-0.647 -68.932,1.062 -68.932,1.062 C-68.932,2.8529999999999998 -68.94999999999999,4.026 -68.99,4.744 C-68.57199999999999,4.744 -68.155,4.744000000000001 -67.64,4.663 C-67.302,4.622 -67.262,4.544 -67.262,4.145 C-67.262,4.145 -67.262,-1.862 -67.262,-1.862 C-66.784,-2.34 -66.108,-2.955 -65.134,-2.955 C-63.978,-2.955 -63.321,-2.202 -63.321,-0.647 C-63.321,-0.647 -63.321,4.424 -63.321,4.424 C-63.321,4.644 -63.241,4.744 -63.062,4.744 C-62.547,4.744 -61.99,4.644 -61.572,4.583 C-61.611000000000004,4.086 -61.653,3.25 -61.653,2.115 C-61.653,2.115 -61.653,-0.827 -61.653,-0.827 C-61.653,-2.698 -62.407000000000004,-4.308 -64.456,-4.308 C-65.63000000000001,-4.308 -66.765,-3.551 -67.561,-2.738 C-67.977,-3.7119999999999997 -68.693,-4.308 -69.966,-4.308 C-71.08,-4.308 -72.155,-3.572 -72.952,-2.818 C-73.012,-3.4530000000000003 -73.172,-4.308 -73.806,-4.308 C-74.145,-4.308 -74.72,-3.931 -74.878,-3.632 C-74.878,-3.632 -74.878,-3.551 -74.878,-3.551 C-74.641,-3.3930000000000002 -74.543,-2.998 -74.543,-2.321 C-74.543,-2.321 -74.543,1.082 -74.543,1.082 C-74.543,2.8529999999999998 -74.56099999999999,4.026 -74.601,4.744 C-74.184,4.744 -73.727,4.744000000000001 -73.25,4.663 C-72.974,4.622 -72.873,4.5440000000000005 -72.873,4.205 C-72.873,4.205 -72.873,-1.782 -72.873,-1.782zM0 0 M-83.374,4.167 C-83.374,4.167 -83.097,4.545 -83.097,4.545 C-82.601,4.663 -81.187,4.744 -79.557,4.744 C-78.145,4.744 -77.407,4.702 -77.148,4.663 C-76.691,4.485 -76.375,4.067 -76.234,3.473 C-76.234,3.473 -76.254,3.432 -76.254,3.432 C-77.03,3.512 -78.32300000000001,3.532 -79.218,3.532 C-80.174,3.532 -81.207,3.491 -81.625,3.373 C-81.625,3.373 -81.625,-1.166 -81.625,-1.166 C-81.625,-1.166 -78.223,-1.166 -78.223,-1.166 C-77.567,-1.166 -77.169,-1.306 -76.991,-2.378 C-76.991,-2.378 -81.625,-2.378 -81.625,-2.378 C-81.625,-2.378 -81.625,-6.576 -81.625,-6.576 C-81.625,-6.576 -78.881,-6.576 -78.881,-6.576 C-78.006,-6.576 -77.56700000000001,-6.5760000000000005 -77.31,-6.716 C-77.07000000000001,-6.914000000000001 -76.89099999999999,-7.272 -76.832,-7.788 C-76.832,-7.788 -81.884,-7.788 -81.884,-7.788 C-82.44,-7.7490000000000006 -83.037,-7.631 -83.435,-7.513 C-83.374,-6.756 -83.374,-5.9639999999999995 -83.374,-5.013 C-83.374,-5.013 -83.374,4.167 -83.374,4.167z"></path></g></g><g style="user-select: none; display: block;" transform="matrix(2.49,0,0,2.49,5.11573999999996,3.2887999999999806)" opacity="1"><g opacity="1" transform="matrix(1,0,0,1,57.941,131.68)"><path stroke-linecap="butt" stroke-linejoin="miter" fill-opacity="0" stroke-miterlimit="10" style="display: block;" stroke="rgb(255,255,255)" stroke-opacity="1" stroke-width="15.3" d="M0 0"></path></g><g opacity="1" transform="matrix(1,0,0,1,86.443,134.992)"><path stroke-linecap="butt" stroke-linejoin="miter" fill-opacity="0" stroke-miterlimit="10" style="display: block;" stroke="rgb(255,255,255)" stroke-opacity="1" stroke-width="15.3" d="M0 0"></path></g></g><g style="user-select: none; display: block;" transform="matrix(2.49,0,0,2.49,5.114999999999952,3.289999999999992)" opacity="1"><g opacity="1" transform="matrix(1.0026000000000002,0,0,1.00014,36.713,60.794)"><path stroke-linecap="butt" stroke-linejoin="miter" fill-opacity="0" stroke-miterlimit="10" style="display: block;" stroke="rgb(255,255,255)" stroke-opacity="1" stroke-width="15.3" d="M0 0"></path></g><g opacity="1" transform="matrix(1,0,0,1,65.721,25.475)"><path stroke-linecap="butt" stroke-linejoin="miter" fill-opacity="0" stroke-miterlimit="10" style="display: block;" stroke="rgb(255,255,255)" stroke-opacity="1" stroke-width="15.3" d="M0 0"></path></g><g opacity="1" transform="matrix(1,0,0,1,73.351,71.6)"><path stroke-linecap="butt" stroke-linejoin="miter" fill-opacity="0" stroke-miterlimit="10" style="display: block;" stroke="rgb(255,255,255)" stroke-opacity="1" stroke-width="15.3" d="M0 0"></path></g></g><g style="user-select: none; display: block;" transform="matrix(2.49,0,0,2.49,5.114999999999952,3.289999999999992)" opacity="1"><g opacity="1" transform="matrix(1,0,0,1,146.545,67.779)"><path stroke-linecap="butt" stroke-linejoin="miter" fill-opacity="0" stroke-miterlimit="10" style="display: block;" stroke="rgb(255,255,255)" stroke-opacity="1" stroke-width="15.3" d="M0 0"></path></g><g opacity="1" transform="matrix(1,0,0,1,127.621,55.391)"><path stroke-linecap="butt" stroke-linejoin="miter" fill-opacity="0" stroke-miterlimit="10" style="display: block;" stroke="rgb(255,255,255)" stroke-opacity="1" stroke-width="15.3" d="M0 0"></path></g></g><g style="user-select: none; display: block;" transform="matrix(2.49,0,0,2.49,5.114999999999952,3.289999999999992)" opacity="1"><g opacity="1" transform="matrix(1,0,0,1,230.145,60.793)"><path stroke-linecap="butt" stroke-linejoin="miter" fill-opacity="0" stroke-miterlimit="10" style="display: block;" stroke="rgb(255,255,255)" stroke-opacity="1" stroke-width="15.3" d="M0 0"></path></g><g opacity="1" transform="matrix(1,0,0,1,163.934,69.364)"><path stroke-linecap="butt" stroke-linejoin="miter" fill-opacity="0" stroke-miterlimit="10" style="display: block;" stroke="rgb(255,255,255)" stroke-opacity="1" stroke-width="15.3" d="M0 0"></path></g><g opacity="1" transform="matrix(1,0,0,1,185.325,51.932)"><path stroke-linecap="butt" stroke-linejoin="miter" fill-opacity="0" stroke-miterlimit="10" style="display: block;" stroke="rgb(255,255,255)" stroke-opacity="1" stroke-width="15.3" d="M0 0"></path></g><g opacity="1" transform="matrix(1,0,0,1,232.387,25.247)"><path stroke-linecap="butt" stroke-linejoin="miter" fill-opacity="0" stroke-miterlimit="10" style="display: block;" stroke="rgb(255,255,255)" stroke-opacity="1" stroke-width="15.3" d="M0 0"></path></g></g><g style="user-select: none; display: block;" transform="matrix(2.49,0,0,2.49,5.114999999999952,3.289999999999992)" opacity="1"><g opacity="1" transform="matrix(1,0,0,1,248.656,131.68)"><path stroke-linecap="butt" stroke-linejoin="miter" fill-opacity="0" stroke-miterlimit="10" style="display: block;" stroke="rgb(255,255,255)" stroke-opacity="1" stroke-width="15.3" d="M0 0"></path></g><g opacity="1" transform="matrix(1,0,0,1,194.401,122.819)"><path stroke-linecap="butt" stroke-linejoin="miter" fill-opacity="0" stroke-miterlimit="10" style="display: block;" stroke="rgb(255,255,255)" stroke-opacity="1" stroke-width="15.3" d="M0 0"></path></g></g><g style="user-select: none; display: block;" transform="matrix(2.49,0,0,2.49,5.114180000000033,3.288870000000003)" opacity="1"><g opacity="1" transform="matrix(1,0,0,1,216.118,96.237)"><path stroke-linecap="butt" stroke-linejoin="miter" fill-opacity="0" stroke-miterlimit="10" style="display: block;" stroke="rgb(255,255,255)" stroke-opacity="1" stroke-width="15.3" d="M0 0 M16.269,-17.722 C16.269,-17.722 1.452,-17.722 1.452,-17.722 C-8.335,-17.722 -16.269,-9.788 -16.269,-0.001 C-16.269,9.786000000000001 -8.335,17.721 1.452,17.721 C1.452,17.721 16.269,17.721 16.269,17.721"></path></g></g><g style="user-select: none; display: block;" transform="matrix(2.49,0,0,2.49,5.114999999999952,3.289999999999992)" opacity="1"><g opacity="1" transform="matrix(1,0,0,1,143.143,99.403)"><path stroke-linecap="butt" stroke-linejoin="miter" fill-opacity="0" stroke-miterlimit="10" style="display: block;" stroke="rgb(255,255,255)" stroke-opacity="1" stroke-width="15.3" d="M0 0 M-10.445,21.178 C-10.445,21.178 -10.445,-3.458 -10.445,-3.458 C-10.445,-13.245000000000001 -2.5100000000000007,-21.178 7.277,-21.178 C7.277,-21.178 10.445,-21.178 10.445,-21.178"></path></g></g><g style="user-select: none; display: block;" transform="matrix(2.49,0,0,2.49,5.11462999999992,3.289869999999979)" opacity="1"><g opacity="1" transform="matrix(1,0,0,1,174.013,96.237)"><path stroke-linecap="butt" stroke-linejoin="miter" fill-opacity="0" stroke-miterlimit="10" style="display: block;" stroke="rgb(255,255,255)" stroke-opacity="1" stroke-width="15.3" d="M0 0 M-17.596,0 C-17.596,0 -17.596,-0.001 -17.596,-0.001 C-17.596,-9.719 -9.717,-17.597 0,-17.597 C9.719,-17.597 17.597,-9.719 17.597,-0.001 C17.597,-0.001 17.597,-0.001 17.597,-0.001 C17.597,9.718 9.719,17.596 0,17.596 C-9.717,17.596 -17.596,9.718 -17.596,0"></path></g></g><g style="user-select: none; display: block;" transform="matrix(2.49,0,0,2.49,5.114999999999952,3.289999999999992)" opacity="1"><g opacity="1" transform="matrix(1,0,0,1,101.039,92.779)"><path stroke-linecap="butt" stroke-linejoin="miter" fill-opacity="0" stroke-miterlimit="10" style="display: block;" stroke="rgb(255,255,255)" stroke-opacity="1" stroke-width="15.3" d="M0 0 M17.722,-21.179 C17.722,-21.179 17.722,3.458 17.722,3.458 C17.722,13.245000000000001 9.787,21.178 -0.001,21.178 C-9.788,21.178 -17.721,13.245000000000001 -17.721,3.458 C-17.721,3.458 -17.721,-21.179 -17.721,-21.179"></path></g></g><g style="user-select: none; display: block;" transform="matrix(2.49,0,0,2.49,5.1145799999999895,3.288870000000003)" opacity="1"><g opacity="1" transform="matrix(1,0,0,1,56.458,96.237)"><path stroke-linecap="butt" stroke-linejoin="miter" fill-opacity="0" stroke-miterlimit="10" style="display: block;" stroke="rgb(255,255,255)" stroke-opacity="1" stroke-width="15.3" d="M0 0 M-16.269,-17.722 C-16.269,-17.722 -1.452,-17.722 -1.452,-17.722 C8.335,-17.722 16.269,-9.788 16.269,-0.001 C16.269,9.786000000000001 8.335,17.721 -1.452,17.721 C-1.452,17.721 -16.269,17.721 -16.269,17.721"></path></g></g><g style="user-select: none; display: block;" transform="matrix(2.49,0,0,2.49,5.115479999999991,3.2906499999999994)" opacity="1"><g opacity="1" transform="matrix(1,0,0,1,185.248,78.515)"><path style="display: block;" fill="rgb(85,175,49)" fill-opacity="1" d="M0 0 M-11.235,15.879 C-11.235,15.879 -11.182,-15.879 -11.182,-15.879 C-11.182,-15.879 11.236,-6.559 11.236,-6.559 C11.236,-6.559 -11.235,15.879 -11.235,15.879z"></path></g></g><g transform="matrix(2.5,0,0,2.5,28.75,81.25)" opacity="1" style="user-select: none; display: none;"><g opacity="1" transform="matrix(1,0,0,1,40.85,108.363)"><path fill="rgb(255,255,255)" fill-opacity="1" d="M0 0 M7.251,0.238 C5.479,0.238 4.046,1.673 4.046,3.443 C4.046,5.211 5.479,6.645 7.251,6.645 C9.022,6.645 10.456,5.211 10.456,3.443 C10.456,1.673 9.022,0.238 7.251,0.238zM0 0 M7.251,-6.645 C5.479,-6.645 4.046,-5.207 4.046,-3.439 C4.046,-1.669 5.479,-0.232 7.251,-0.232 C9.022,-0.232 10.456,-1.669 10.456,-3.439 C10.456,-5.207 9.022,-6.645 7.251,-6.645zM0 0 M-0.001,0.238 C-1.7679999999999998,0.238 -3.204,1.673 -3.204,3.443 C-3.204,5.211 -1.7679999999999998,6.645 -0.001,6.645 C1.77,6.645 3.206,5.211 3.206,3.443 C3.206,1.673 1.77,0.238 -0.001,0.238zM0 0 M-0.001,-6.645 C-1.7679999999999998,-6.645 -3.204,-5.207 -3.204,-3.439 C-3.204,-1.669 -1.7679999999999998,-0.232 -0.001,-0.232 C1.77,-0.232 3.206,-1.669 3.206,-3.439 C3.206,-5.207 1.77,-6.645 -0.001,-6.645zM0 0 M-7.251,0.238 C-9.019,0.238 -10.456,1.673 -10.456,3.443 C-10.456,5.211 -9.019,6.645 -7.251,6.645 C-5.478000000000001,6.645 -4.043,5.211 -4.043,3.443 C-4.043,1.673 -5.478000000000001,0.238 -7.251,0.238zM0 0 M-7.251,-6.645 C-9.019,-6.645 -10.456,-5.207 -10.456,-3.439 C-10.456,-1.669 -9.019,-0.232 -7.251,-0.232 C-5.478000000000001,-0.232 -4.043,-1.669 -4.043,-3.439 C-4.043,-5.207 -5.478000000000001,-6.645 -7.251,-6.645z" style="display: none;"></path></g></g><g transform="matrix(2.5,0,0,2.5,28.75,81.25)" opacity="0.7000000000000001" style="user-select: none; display: none;"><g opacity="1" transform="matrix(1,0,0,1,139.16,110.016)"><path fill="rgb(255,255,255)" fill-opacity="1" d="M0 0 M79.933,-3.276 C81.18900000000001,-3.276 81.807,-2.34 81.786,-1.124 C81.786,-0.8870000000000001 81.627,-0.727 81.369,-0.705 C81.009,-0.6869999999999999 79.217,-0.6649999999999999 77.783,-0.705 C77.944,-2.379 78.919,-3.276 79.913,-3.276 C79.913,-3.276 79.933,-3.276 79.933,-3.276zM0 0 M82.957,3.034 C82.6,3.2319999999999998 81.62700000000001,3.532 80.73,3.532 C78.979,3.532 77.745,2.375 77.726,0.347 C79.158,0.40599999999999997 81.14800000000001,0.365 81.686,0.305 C82.361,0.187 83.315,-0.05099999999999999 83.375,-0.388 C83.413,-0.549 83.435,-0.8069999999999999 83.435,-1.006 C83.395,-2.6189999999999998 82.42099999999999,-4.308 80.154,-4.308 C77.527,-4.308 76.017,-2.081 76.017,0.427 C76.017,3.212 77.527,4.861 80.292,4.861 C81.089,4.861 81.92399999999999,4.604 82.243,4.426 C82.58,4.246 82.997,3.689 82.997,3.071 C82.997,3.071 82.957,3.034 82.957,3.034zM0 0 M70.128,-3.493 C70.486,-3.2729999999999997 70.586,-2.8560000000000003 70.586,-2.24 C70.586,-2.24 70.586,1.082 70.586,1.082 C70.586,2.8529999999999998 70.56500000000001,4.026 70.525,4.744 C70.94200000000001,4.744 71.42,4.721 71.897,4.663 C72.19300000000001,4.622 72.255,4.484999999999999 72.255,4.185 C72.255,4.185 72.255,-0.289 72.255,-0.289 C72.255,-0.728 72.333,-1.0070000000000001 72.473,-1.365 C72.89,-2.34 73.547,-2.738 73.983,-2.738 C74.242,-2.738 74.48100000000001,-2.698 74.781,-2.578 C75,-2.5989999999999998 75.297,-2.9170000000000003 75.357,-3.216 C75.496,-3.4530000000000003 75.517,-3.812 75.438,-3.988 C75.297,-4.129 74.938,-4.308 74.54,-4.308 C73.62700000000001,-4.308 72.751,-3.632 72.135,-2.321 C72.135,-3.592 71.77699999999999,-4.308 71.201,-4.308 C70.84299999999999,-4.308 70.266,-3.87 70.128,-3.572 C70.128,-3.572 70.128,-3.493 70.128,-3.493zM0 0 M60.3,1.581 C60.3,3.532 61.214,4.861 63.224,4.861 C63.681999999999995,4.861 64.1,4.763 64.496,4.604 C64.914,4.4030000000000005 65.572,4.067 66.147,3.452 C66.248,4.306 66.70500000000001,4.861 67.537,4.861 C67.95700000000001,4.861 68.414,4.306 68.435,3.93 C68.435,3.93 68.435,3.851 68.435,3.851 C67.876,3.75 67.639,3.552 67.639,2.575 C67.639,2.575 67.639,-0.627 67.639,-0.627 C67.639,-2.357 67.698,-3.771 67.698,-4.207 C67.261,-4.207 66.82300000000001,-4.148000000000001 66.289,-4.089 C66.029,-3.9880000000000004 65.968,-3.891 65.968,-3.413 C65.968,-3.413 65.968,2.479 65.968,2.479 C65.65100000000001,2.895 64.855,3.491 63.92,3.491 C63.044000000000004,3.491 61.97,3.212 61.97,1.105 C61.97,-0.18900000000000006 61.97,-1.6600000000000001 61.948,-2.975 C61.948,-4.107 61.888999999999996,-4.207 61.668,-4.207 C61.333999999999996,-4.207 60.558,-4.107 60.221,-4.009 C60.26,-3.5700000000000003 60.3,-2.9749999999999996 60.3,-1.761 C60.3,-1.761 60.3,1.581 60.3,1.581zM0 0 M58.707,3.175 C58.367,3.412 57.791000000000004,3.59 57.215,3.59 C56.538000000000004,3.59 55.879999999999995,3.293 55.781,2.098 C55.699999999999996,1.2429999999999999 55.682,-0.9059999999999997 55.781,-2.937 C57.214999999999996,-2.937 57.293,-2.937 57.97,-2.997 C58.327,-3.018 58.765,-3.0950000000000006 58.966,-4.089 C58.966,-4.089 55.802,-4.089 55.802,-4.089 C55.802,-4.506 55.841,-5.004 55.88,-5.64 C55.404,-5.561999999999999 55.126999999999995,-5.359999999999999 54.867,-5.143 C54.568999999999996,-4.8839999999999995 53.338,-3.751 53.137,-3.334 C53.137,-3.1350000000000002 53.418,-2.917 54.094,-2.917 C54.094,-2.917 54.094,2.238 54.094,2.238 C54.094,3.75 54.788,4.861 56.558,4.861 C57.255,4.861 58.028,4.663 58.428,4.325 C58.785999999999994,4.049 58.846,3.611 58.744,3.212 C58.744,3.212 58.707,3.175 58.707,3.175zM0 0 M46.412,2.356 C46.412,1.2429999999999999 47.944,0.6859999999999999 49.576,0.427 C49.576,0.427 49.576,1.979 49.576,1.979 C49.576,2.317 49.518,2.497 49.439,2.636 C49.14,3.053 48.563,3.57 47.725,3.57 C47.009,3.57 46.412,3.1129999999999995 46.412,2.377 C46.412,2.377 46.412,2.356 46.412,2.356zM0 0 M52.241,3.59 C52.121,3.631 51.963,3.631 51.863,3.631 C51.425,3.65 51.206,3.3920000000000003 51.188,2.995 C51.166000000000004,1.7810000000000001 51.227,-0.131 51.227,-0.988 C51.227,-2.878 50.272,-4.308 48.265,-4.308 C46.928,-4.308 45.637,-3.551 45.002,-2.976 C45.041000000000004,-2.479 45.300000000000004,-2.02 45.835,-2.24 C46.392,-2.619 47.129,-2.976 47.866,-2.976 C49.059,-2.976 49.598,-2.081 49.598,-1.146 C49.598,-1.146 49.598,-0.55 49.598,-0.55 C49.338,-0.51 48.961,-0.429 48.602,-0.349 C47.525999999999996,-0.08999999999999997 44.742,0.4870000000000001 44.742,2.615 C44.742,3.829 45.677,4.861 47.049,4.861 C48.104,4.861 49.04,4.228 49.598,3.611 C49.716,4.267 50.153,4.861 50.987,4.861 C51.803000000000004,4.861 52.28,4.444 52.259,3.631 C52.259,3.631 52.241,3.59 52.241,3.59zM0 0 M41.182,4.465 C41.182,4.644 41.26,4.744 41.479,4.744 C41.998,4.744 42.531000000000006,4.644 42.95,4.583 C42.911,4.086 42.872,3.25 42.872,2.097 C42.872,2.097 42.872,-0.689 42.872,-0.689 C42.872,-2.5989999999999998 42.254,-4.308 39.966,-4.308 C38.873000000000005,-4.308 37.798,-3.611 37.022,-2.838 C36.961999999999996,-3.3930000000000002 36.783,-4.308 36.168,-4.308 C35.809,-4.308 35.251999999999995,-3.931 35.095,-3.611 C35.095,-3.611 35.095,-3.532 35.095,-3.532 C35.330999999999996,-3.353 35.432,-3.0180000000000002 35.432,-2.301 C35.432,-2.301 35.432,1.082 35.432,1.082 C35.432,2.8529999999999998 35.413,4.026 35.373,4.744 C35.809,4.721 36.247,4.744000000000001 36.684,4.663 C37.022,4.622 37.101,4.564 37.101,4.166 C37.101,4.166 37.101,-1.782 37.101,-1.782 C37.559,-2.321 38.335,-2.976 39.35,-2.976 C40.505,-2.976 41.201,-2.221 41.201,-0.67 C41.201,-0.67 41.182,4.465 41.182,4.465zM0 0 M22.362,8.344 C22.541999999999998,8.581 23.060000000000002,8.84 23.536,8.84 C23.895000000000003,8.84 25.743,6.057 27.055,3.192 C28.189,0.726 28.946,-1.66 29.442,-3.413 C29.54,-3.8289999999999997 29.5,-4.0089999999999995 29.205,-4.129 C28.904,-4.247999999999999 28.487000000000002,-4.308 28.17,-4.308 C27.812,-2.6769999999999996 26.698,0.6859999999999999 25.902,2.476 C25.404,1.063 24.073999999999998,-2.735 23.575,-3.949 C23.476,-4.168 23.396,-4.308 23.138,-4.308 C22.8,-4.308 22.122,-4.068 21.746,-3.851 C22.642,-1.961 24.291,2.516 24.589,3.291 C24.729,3.6479999999999997 24.928,4.047 25.026,4.186 C24.173,5.857 23.017999999999997,7.4879999999999995 22.362,8.283 C22.362,8.283 22.362,8.344 22.362,8.344zM0 0 M14.422,-2.419 C14.921000000000001,-2.717 15.755999999999998,-2.955 16.252,-2.955 C17.904,-2.955 19.022,-1.803 19.022,0.128 C19.022,2.557 17.429,3.75 15.677,3.75 C15.298,3.75 14.781,3.691 14.422,3.552 C14.422,3.552 14.422,-2.419 14.422,-2.419zM0 0 M14.442,-7.554 C14.442,-8.763 14.363000000000001,-8.862 14.143,-8.862 C13.865,-8.862 13.093,-8.724 12.673,-8.587 C12.715,-8.189 12.753,-7.596 12.753,-6.387 C12.753,-6.387 12.753,3.79 12.753,3.79 C12.753,4.127 12.853,4.2459999999999996 13.093,4.385 C13.547,4.624 14.502,4.861 15.519,4.861 C18.424,4.861 20.809,3.014 20.809,-0.112 C20.809,-2.998 18.921,-4.308 17.091,-4.308 C16.215,-4.308 15.159,-3.851 14.422,-3.413 C14.422,-3.413 14.442,-7.554 14.442,-7.554zM0 0 M4.061,2.854 C3.583,3.254 2.807,3.512 2.171,3.512 C0.5989999999999998,3.512 -0.637,2.317 -0.637,0.326 C-0.637,-2.16 1.015,-3.195 2.509,-3.195 C3.205,-3.195 3.7809999999999997,-3.057 4.061,-2.878 C4.061,-2.878 4.061,2.854 4.061,2.854zM0 0 M4.061,-4.047 C3.8209999999999997,-4.109 3.324,-4.308 2.528,-4.308 C-0.2999999999999998,-4.308 -2.427,-2.3209999999999997 -2.427,0.546 C-2.427,3.3529999999999998 -0.6779999999999999,4.861 1.432,4.861 C2.269,4.861 3.442,4.365 4.24,3.731 C4.359,4.325 4.756,4.861 5.67,4.861 C6.086,4.861 6.505,4.346 6.584,3.908 C6.584,3.908 6.584,3.851 6.584,3.851 C5.987,3.75 5.73,3.532 5.73,2.597 C5.73,2.597 5.73,-7.554 5.73,-7.554 C5.73,-8.763 5.649,-8.862 5.429,-8.862 C5.133,-8.862 4.337,-8.724 3.981,-8.587 C4.02,-8.189 4.061,-7.7139999999999995 4.061,-6.664 C4.061,-6.664 4.061,-4.047 4.061,-4.047zM0 0 M-7.24,-3.276 C-5.988,-3.276 -5.367999999999999,-2.34 -5.39,-1.124 C-5.39,-0.8870000000000001 -5.548,-0.727 -5.806,-0.705 C-6.167,-0.6869999999999999 -7.9559999999999995,-0.6649999999999999 -9.391,-0.705 C-9.231,-2.379 -8.257,-3.276 -7.26,-3.276 C-7.26,-3.276 -7.24,-3.276 -7.24,-3.276zM0 0 M-4.22,3.034 C-4.574,3.2319999999999998 -5.548,3.532 -6.445,3.532 C-8.195,3.532 -9.428999999999998,2.375 -9.45,0.347 C-8.017,0.40599999999999997 -6.026,0.365 -5.487,0.305 C-4.814,0.187 -3.8600000000000003,-0.05099999999999999 -3.801,-0.388 C-3.761,-0.549 -3.74,-0.8069999999999999 -3.74,-1.006 C-3.781,-2.6189999999999998 -4.754,-4.308 -7.02,-4.308 C-9.649999999999999,-4.308 -11.159,-2.081 -11.159,0.427 C-11.159,3.212 -9.65,4.861 -6.883,4.861 C-6.087,4.861 -5.25,4.604 -4.934,4.426 C-4.594,4.246 -4.177,3.689 -4.177,3.071 C-4.177,3.071 -4.22,3.034 -4.22,3.034zM0 0 M-17.048,-3.493 C-16.689,-3.2729999999999997 -16.589,-2.8560000000000003 -16.589,-2.24 C-16.589,-2.24 -16.589,1.082 -16.589,1.082 C-16.589,2.8529999999999998 -16.608999999999998,4.026 -16.648,4.744 C-16.232,4.744 -15.754999999999999,4.721 -15.277,4.663 C-14.979999999999999,4.622 -14.922,4.484999999999999 -14.922,4.185 C-14.922,4.185 -14.922,-0.289 -14.922,-0.289 C-14.922,-0.728 -14.842,-1.0070000000000001 -14.702,-1.365 C-14.283,-2.34 -13.628,-2.738 -13.189,-2.738 C-12.931000000000001,-2.738 -12.693,-2.698 -12.394,-2.578 C-12.176,-2.5989999999999998 -11.879,-2.9170000000000003 -11.817,-3.216 C-11.678,-3.4530000000000003 -11.658999999999999,-3.812 -11.738,-3.988 C-11.879,-4.129 -12.235,-4.308 -12.633,-4.308 C-13.549,-4.308 -14.424,-3.632 -15.04,-2.321 C-15.04,-3.592 -15.396,-4.308 -15.974,-4.308 C-16.332,-4.308 -16.907999999999998,-3.87 -17.048,-3.572 C-17.048,-3.572 -17.048,-3.493 -17.048,-3.493zM0 0 M-21.942,-3.276 C-20.686,-3.276 -20.07,-2.34 -20.092,-1.124 C-20.092,-0.8870000000000001 -20.249,-0.727 -20.509,-0.705 C-20.868000000000002,-0.6869999999999999 -22.659,-0.6649999999999999 -24.093,-0.705 C-23.933,-2.379 -22.958000000000002,-3.276 -21.963,-3.276 C-21.963,-3.276 -21.942,-3.276 -21.942,-3.276zM0 0 M-18.92,3.034 C-19.275000000000002,3.2319999999999998 -20.249000000000002,3.532 -21.146,3.532 C-22.897000000000002,3.532 -24.133,2.375 -24.151,0.347 C-22.719,0.40599999999999997 -20.728,0.365 -20.19,0.305 C-19.516000000000002,0.187 -18.561,-0.05099999999999999 -18.501,-0.388 C-18.461000000000002,-0.549 -18.442,-0.8069999999999999 -18.442,-1.006 C-18.482,-2.6189999999999998 -19.455,-4.308 -21.723,-4.308 C-24.352,-4.308 -25.86,-2.081 -25.86,0.427 C-25.86,3.212 -24.352,4.861 -21.585,4.861 C-20.788,4.861 -19.951,4.604 -19.635,4.426 C-19.297,4.246 -18.878,3.689 -18.878,3.071 C-18.878,3.071 -18.92,3.034 -18.92,3.034zM0 0 M-38.015,-4.308 C-38.354,-4.308 -39.15,-4.068 -39.467,-3.851 C-39.25,-3.332 -38.891999999999996,-2.417 -38.315,-0.787 C-37.577999999999996,1.3820000000000001 -36.862,3.6479999999999997 -36.465,4.861 C-36.125,4.842 -35.747,4.763 -35.431,4.684 C-35.190999999999995,4.604 -35.091,4.442 -34.975,4.126 C-34.596000000000004,2.9910000000000005 -33.422000000000004,-0.2879999999999998 -33.042,-1.503 C-32.307,0.9430000000000003 -31.85,2.276 -31.114,4.861 C-30.776,4.842 -30.398,4.781 -30.1,4.702 C-29.802000000000003,4.604 -29.681,4.442 -29.543,4.047 C-28.529,1.3629999999999995 -27.872,-0.5100000000000002 -26.978,-2.955 C-26.719,-3.65 -26.719,-3.909 -26.936,-4.068 C-27.255,-4.207 -27.672,-4.308 -28.052,-4.308 C-28.349999999999998,-3.291 -28.944,-1.443 -30.316,2.555 C-31.095,-0.05099999999999971 -31.691000000000003,-1.9409999999999998 -32.09,-3.291 C-32.249,-3.87 -32.327999999999996,-4.107 -32.565,-4.107 C-32.885,-4.107 -33.542,-3.909 -33.781,-3.79 C-33.739,-3.6710000000000003 -33.678999999999995,-3.452 -33.66,-3.291 C-34.296,-1.305 -34.754000000000005,-0.010000000000000231 -35.63,2.635 C-36.385000000000005,-0.03000000000000025 -37.021,-2.0989999999999998 -37.619,-3.949 C-37.698,-4.188 -37.816,-4.308 -37.996,-4.308 C-37.996,-4.308 -38.015,-4.308 -38.015,-4.308zM0 0 M-44.801,-3.216 C-42.99,-3.216 -42.193,-1.504 -42.193,0.326 C-42.193,2.773 -43.428000000000004,3.769 -44.621,3.769 C-46.075,3.769 -47.309,2.5749999999999997 -47.309,0.147 C-47.309,-2.02 -46.154,-3.216 -44.822,-3.216 C-44.822,-3.216 -44.801,-3.216 -44.801,-3.216zM0 0 M-44.662,-4.308 C-47.29,-4.308 -49.097,-2.26 -49.097,0.366 C-49.097,2.7150000000000003 -47.68600000000001,4.861 -44.779,4.861 C-42.096000000000004,4.861 -40.406,2.834 -40.406,0.188 C-40.406,-2.34 -41.854,-4.308 -44.643,-4.308 C-44.643,-4.308 -44.662,-4.308 -44.662,-4.308zM0 0 M-57.177,-1.962 C-56.778,-2.3209999999999997 -55.844,-2.917 -54.888,-2.917 C-53.494,-2.917 -52.46,-1.722 -52.46,0.108 C-52.46,2.873 -54.271,3.71 -55.485,3.71 C-56.121,3.71 -56.778,3.51 -57.177,3.272 C-57.177,3.272 -57.177,-1.962 -57.177,-1.962zM0 0 M-57.177,4.365 C-56.76,4.644 -56.062,4.861 -55.363,4.861 C-52.775999999999996,4.861 -50.672,2.8539999999999996 -50.672,-0.091 C-50.672,-2.955 -52.441,-4.308 -54.191,-4.308 C-55.105000000000004,-4.308 -56.080999999999996,-3.891 -57.275,-2.997 C-57.314,-3.771 -57.612,-4.308 -58.07,-4.308 C-58.507,-4.308 -58.984,-3.931 -59.183,-3.632 C-59.183,-3.632 -59.183,-3.532 -59.183,-3.532 C-58.984,-3.4130000000000003 -58.845,-3.057 -58.845,-2.419 C-58.845,-2.419 -58.845,5.38 -58.845,5.38 C-58.845,7.170999999999999 -58.865,8.305 -58.905,8.862 C-58.428000000000004,8.862 -58.031,8.84 -57.554,8.782 C-57.236000000000004,8.683 -57.177,8.603 -57.177,8.283 C-57.177,8.283 -57.177,4.365 -57.177,4.365zM0 0 M-72.873,-1.782 C-72.375,-2.321 -71.579,-2.955 -70.684,-2.955 C-69.54899999999999,-2.955 -68.932,-2.202 -68.932,-0.647 C-68.932,-0.647 -68.932,1.062 -68.932,1.062 C-68.932,2.8529999999999998 -68.94999999999999,4.026 -68.99,4.744 C-68.57199999999999,4.744 -68.155,4.744000000000001 -67.64,4.663 C-67.302,4.622 -67.262,4.544 -67.262,4.145 C-67.262,4.145 -67.262,-1.862 -67.262,-1.862 C-66.784,-2.34 -66.108,-2.955 -65.134,-2.955 C-63.978,-2.955 -63.321,-2.202 -63.321,-0.647 C-63.321,-0.647 -63.321,4.424 -63.321,4.424 C-63.321,4.644 -63.241,4.744 -63.062,4.744 C-62.547,4.744 -61.99,4.644 -61.572,4.583 C-61.611000000000004,4.086 -61.653,3.25 -61.653,2.115 C-61.653,2.115 -61.653,-0.827 -61.653,-0.827 C-61.653,-2.698 -62.407000000000004,-4.308 -64.456,-4.308 C-65.63000000000001,-4.308 -66.765,-3.551 -67.561,-2.738 C-67.977,-3.7119999999999997 -68.693,-4.308 -69.966,-4.308 C-71.08,-4.308 -72.155,-3.572 -72.952,-2.818 C-73.012,-3.4530000000000003 -73.172,-4.308 -73.806,-4.308 C-74.145,-4.308 -74.72,-3.931 -74.878,-3.632 C-74.878,-3.632 -74.878,-3.551 -74.878,-3.551 C-74.641,-3.3930000000000002 -74.543,-2.998 -74.543,-2.321 C-74.543,-2.321 -74.543,1.082 -74.543,1.082 C-74.543,2.8529999999999998 -74.56099999999999,4.026 -74.601,4.744 C-74.184,4.744 -73.727,4.744000000000001 -73.25,4.663 C-72.974,4.622 -72.873,4.5440000000000005 -72.873,4.205 C-72.873,4.205 -72.873,-1.782 -72.873,-1.782zM0 0 M-83.374,4.167 C-83.374,4.167 -83.097,4.545 -83.097,4.545 C-82.601,4.663 -81.187,4.744 -79.557,4.744 C-78.145,4.744 -77.407,4.702 -77.148,4.663 C-76.691,4.485 -76.375,4.067 -76.234,3.473 C-76.234,3.473 -76.254,3.432 -76.254,3.432 C-77.03,3.512 -78.32300000000001,3.532 -79.218,3.532 C-80.174,3.532 -81.207,3.491 -81.625,3.373 C-81.625,3.373 -81.625,-1.166 -81.625,-1.166 C-81.625,-1.166 -78.223,-1.166 -78.223,-1.166 C-77.567,-1.166 -77.169,-1.306 -76.991,-2.378 C-76.991,-2.378 -81.625,-2.378 -81.625,-2.378 C-81.625,-2.378 -81.625,-6.576 -81.625,-6.576 C-81.625,-6.576 -78.881,-6.576 -78.881,-6.576 C-78.006,-6.576 -77.56700000000001,-6.5760000000000005 -77.31,-6.716 C-77.07000000000001,-6.914000000000001 -76.89099999999999,-7.272 -76.832,-7.788 C-76.832,-7.788 -81.884,-7.788 -81.884,-7.788 C-82.44,-7.7490000000000006 -83.037,-7.631 -83.435,-7.513 C-83.374,-6.756 -83.374,-5.9639999999999995 -83.374,-5.013 C-83.374,-5.013 -83.374,4.167 -83.374,4.167z" style="display: none;"></path></g></g><g transform="matrix(2.49,0,0,2.49,5.11573999999996,3.2887999999999806)" opacity="1" style="user-select: none; display: none;"><g opacity="1" transform="matrix(1,0,0,1,57.941,131.68)"><path stroke-linecap="butt" stroke-linejoin="miter" fill-opacity="0" stroke-miterlimit="10" stroke="rgb(255,255,255)" stroke-opacity="1" stroke-width="15.3" d="M0 0" style="display: none;"></path></g><g opacity="1" transform="matrix(1,0,0,1,86.443,134.992)"><path stroke-linecap="butt" stroke-linejoin="miter" fill-opacity="0" stroke-miterlimit="10" stroke="rgb(255,255,255)" stroke-opacity="1" stroke-width="15.3" d="M0 0" style="display: none;"></path></g></g><g transform="matrix(2.49,0,0,2.49,5.114999999999952,3.289999999999992)" opacity="1" style="user-select: none; display: none;"><g opacity="1" transform="matrix(1.0026000000000002,0,0,1.00014,36.713,60.794)"><path stroke-linecap="butt" stroke-linejoin="miter" fill-opacity="0" stroke-miterlimit="10" stroke="rgb(255,255,255)" stroke-opacity="1" stroke-width="15.3" d="M0 0 M3.83,17.721 C3.83,17.721 1.952,17.721 -0.48,17.721" style="display: none;"></path></g><g opacity="1" transform="matrix(1,0,0,1,65.721,25.475)"><path stroke-linecap="butt" stroke-linejoin="miter" fill-opacity="0" stroke-miterlimit="10" stroke="rgb(255,255,255)" stroke-opacity="1" stroke-width="15.3" d="M0 0" style="display: none;"></path></g><g opacity="1" transform="matrix(1,0,0,1,73.351,71.6)"><path stroke-linecap="butt" stroke-linejoin="miter" fill-opacity="0" stroke-miterlimit="10" stroke="rgb(255,255,255)" stroke-opacity="1" stroke-width="15.3" d="M0 0" style="display: none;"></path></g></g><g transform="matrix(2.49,0,0,2.49,5.114999999999952,3.289999999999992)" opacity="1" style="user-select: none; display: none;"><g opacity="1" transform="matrix(1,0,0,1,146.545,67.779)"><path stroke-linecap="butt" stroke-linejoin="miter" fill-opacity="0" stroke-miterlimit="10" stroke="rgb(255,255,255)" stroke-opacity="1" stroke-width="15.3" d="M0 0" style="display: none;"></path></g><g opacity="1" transform="matrix(1,0,0,1,127.621,55.391)"><path stroke-linecap="butt" stroke-linejoin="miter" fill-opacity="0" stroke-miterlimit="10" stroke="rgb(255,255,255)" stroke-opacity="1" stroke-width="15.3" d="M0 0" style="display: none;"></path></g></g><g transform="matrix(2.49,0,0,2.49,5.114999999999952,3.289999999999992)" opacity="1" style="user-select: none; display: none;"><g opacity="1" transform="matrix(1,0,0,1,230.145,60.793)"><path stroke-linecap="butt" stroke-linejoin="miter" fill-opacity="0" stroke-miterlimit="10" stroke="rgb(255,255,255)" stroke-opacity="1" stroke-width="15.3" d="M0 0 M10.786,17.721 C6.63,17.721 1.94,17.721 1.94,17.721" style="display: none;"></path></g><g opacity="1" transform="matrix(1,0,0,1,163.934,69.364)"><path stroke-linecap="butt" stroke-linejoin="miter" fill-opacity="0" stroke-miterlimit="10" stroke="rgb(255,255,255)" stroke-opacity="1" stroke-width="15.3" d="M0 0" style="display: none;"></path></g><g opacity="1" transform="matrix(1,0,0,1,185.325,51.932)"><path stroke-linecap="butt" stroke-linejoin="miter" fill-opacity="0" stroke-miterlimit="10" stroke="rgb(255,255,255)" stroke-opacity="1" stroke-width="15.3" d="M0 0" style="display: none;"></path></g><g opacity="1" transform="matrix(1,0,0,1,232.387,25.247)"><path stroke-linecap="butt" stroke-linejoin="miter" fill-opacity="0" stroke-miterlimit="10" stroke="rgb(255,255,255)" stroke-opacity="1" stroke-width="15.3" d="M0 0" style="display: none;"></path></g></g><g transform="matrix(2.49,0,0,2.49,5.114999999999952,3.289999999999992)" opacity="1" style="user-select: none; display: none;"><g opacity="1" transform="matrix(1,0,0,1,248.656,131.68)"><path stroke-linecap="butt" stroke-linejoin="miter" fill-opacity="0" stroke-miterlimit="10" stroke="rgb(255,255,255)" stroke-opacity="1" stroke-width="15.3" d="M0 0" style="display: none;"></path></g><g opacity="1" transform="matrix(1,0,0,1,194.401,122.819)"><path stroke-linecap="butt" stroke-linejoin="miter" fill-opacity="0" stroke-miterlimit="10" stroke="rgb(255,255,255)" stroke-opacity="1" stroke-width="15.3" d="M0 0 M-37.961,-19.787 C-37.976,-24.015 -37.986,-26.984 -37.986,-26.984" style="display: none;"></path></g></g><g transform="matrix(2.49,0,0,2.49,5.114180000000033,3.288870000000003)" opacity="1" style="user-select: none; display: none;"><g opacity="1" transform="matrix(1,0,0,1,216.118,96.237)"><path stroke-linecap="butt" stroke-linejoin="miter" fill-opacity="0" stroke-miterlimit="10" stroke="rgb(255,255,255)" stroke-opacity="1" stroke-width="15.3" d="M0 0 M16.269,-17.722 C16.269,-17.722 1.452,-17.722 1.452,-17.722 C-8.335,-17.722 -16.269,-9.788 -16.269,-0.001 C-16.269,9.786000000000001 -8.335,17.721 1.452,17.721 C1.452,17.721 4.361,17.721 7.601,17.721" style="display: none;"></path></g></g><g transform="matrix(2.49,0,0,2.49,5.11462999999992,3.289869999999979)" opacity="1" style="user-select: none; display: none;"><g opacity="1" transform="matrix(1,0,0,1,174.013,96.237)"><path stroke-linecap="butt" stroke-linejoin="miter" fill-opacity="0" stroke-miterlimit="10" stroke="rgb(255,255,255)" stroke-opacity="1" stroke-width="15.3" d="M0 0 M-17.596,0 C-17.596,0 -17.596,-0.001 -17.596,-0.001 C-17.596,-9.719 -9.717,-17.597 0,-17.597 C9.719,-17.597 17.597,-9.719 17.597,-0.001 C17.597,-0.001 17.597,-0.001 17.597,-0.001 C17.597,9.718 9.719,17.596 0,17.596 C-7.467,17.596 -13.848,12.944 -16.403,6.38" style="display: none;"></path></g></g><g transform="matrix(2.49,0,0,2.49,5.114999999999952,3.289999999999992)" opacity="1" style="user-select: none; display: none;"><g opacity="1" transform="matrix(1,0,0,1,143.143,99.403)"><path stroke-linecap="butt" stroke-linejoin="miter" fill-opacity="0" stroke-miterlimit="10" stroke="rgb(255,255,255)" stroke-opacity="1" stroke-width="15.3" d="M0 0 M-10.445,21.178 C-10.445,21.178 -10.445,-3.458 -10.445,-3.458 C-10.445,-13.245000000000001 -2.5100000000000007,-21.178 7.277,-21.178 C7.277,-21.178 10.445,-21.178 10.445,-21.178" style="display: none;"></path></g></g><g transform="matrix(2.49,0,0,2.49,5.114999999999952,3.289999999999992)" opacity="1" style="user-select: none; display: none;"><g opacity="1" transform="matrix(1,0,0,1,101.039,92.779)"><path stroke-linecap="butt" stroke-linejoin="miter" fill-opacity="0" stroke-miterlimit="10" stroke="rgb(255,255,255)" stroke-opacity="1" stroke-width="15.3" d="M0 0 M17.722,-21.179 C17.722,-21.179 17.722,3.458 17.722,3.458 C17.722,13.245000000000001 9.787,21.178 -0.001,21.178 C-9.788,21.178 -17.721,13.245000000000001 -17.721,3.458 C-17.721,3.458 -17.721,-15.542 -17.721,-20.171" style="display: none;"></path></g></g><g transform="matrix(2.49,0,0,2.49,5.1145799999999895,3.288870000000003)" opacity="1" style="user-select: none; display: none;"><g opacity="1" transform="matrix(1,0,0,1,56.458,96.237)"><path stroke-linecap="butt" stroke-linejoin="miter" fill-opacity="0" stroke-miterlimit="10" stroke="rgb(255,255,255)" stroke-opacity="1" stroke-width="15.3" d="M0 0 M-16.269,-17.722 C-16.269,-17.722 -1.452,-17.722 -1.452,-17.722 C8.335,-17.722 16.269,-9.788 16.269,-0.001 C16.269,9.786000000000001 8.335,17.721 -1.452,17.721 C-1.452,17.721 -8.598,17.721 -12.965,17.721" style="display: none;"></path></g></g><g transform="matrix(2.49,-6.09874105975382e-16,6.09874105975382e-16,2.49,5.115479999999934,3.290650000000113)" opacity="1" style="user-select: none; display: none;"><g opacity="1" transform="matrix(1,0,0,1,185.248,78.515)"><path fill="rgb(85,175,49)" fill-opacity="1" d="M0 0 M-11.235,15.879 C-11.235,15.879 -11.182,-15.879 -11.182,-15.879 C-11.182,-15.879 11.236,-6.559 11.236,-6.559 C11.236,-6.559 -11.235,15.879 -11.235,15.879z" style="display: none;"></path></g></g></g></svg>